<?xml version="1.0" standalone="no"?><!DOCTYPE svg PUBLIC "-//W3C//DTD SVG 1.1//EN" "http://www.w3.org/Graphics/SVG/1.1/DTD/svg11.dtd"><svg t="1726629928435" class="icon" viewBox="0 0 1024 1024" version="1.1" xmlns="http://www.w3.org/2000/svg" p-id="3724" xmlns:xlink="http://www.w3.org/1999/xlink" width="48" height="48"><path d="M819.2 785.066667a34.133333 34.133333 0 1 1 0 68.266666H204.8a34.133333 34.133333 0 1 1 0-68.266666h614.4z m0-204.8a34.133333 34.133333 0 1 1 0 68.266666h-358.4a34.133333 34.133333 0 1 1 0-68.266666h358.4zM361.813333 387.328a13.653333 13.653333 0 0 1 13.653334 13.653333v222.037334a13.653333 13.653333 0 0 1-21.248 11.349333L187.733333 523.349333a13.653333 13.653333 0 0 1 0-22.698666l166.528-111.018667a13.653333 13.653333 0 0 1 7.594667-2.304zM819.2 375.466667a34.133333 34.133333 0 1 1 0 68.266666h-358.4a34.133333 34.133333 0 1 1 0-68.266666h358.4z m0-204.8a34.133333 34.133333 0 1 1 0 68.266666H204.8a34.133333 34.133333 0 1 1 0-68.266666h614.4z" fill="#1296db" p-id="3725"></path></svg>